solid OpenSCAD_Model
  facet normal -0 0 1
    outer loop
      vertex 0 47.2 0.6
      vertex 133.3 0 0.6
      vertex 133.3 47.2 0.6
    endloop
  endfacet
  facet normal 0 0 1
    outer loop
      vertex 133.3 0 0.6
      vertex 0 47.2 0.6
      vertex 0 0 0.6
    endloop
  endfacet
  facet normal 0 0 -1
    outer loop
      vertex 0 0 0
      vertex 133.3 47.2 0
      vertex 133.3 0 0
    endloop
  endfacet
  facet normal -0 0 -1
    outer loop
      vertex 133.3 47.2 0
      vertex 0 0 0
      vertex 0 47.2 0
    endloop
  endfacet
  facet normal 0 -1 0
    outer loop
      vertex 0 0 0
      vertex 133.3 0 0.6
      vertex 0 0 0.6
    endloop
  endfacet
  facet normal 0 -1 -0
    outer loop
      vertex 133.3 0 0.6
      vertex 0 0 0
      vertex 133.3 0 0
    endloop
  endfacet
  facet normal 1 -0 0
    outer loop
      vertex 133.3 0 0.6
      vertex 133.3 47.2 0
      vertex 133.3 47.2 0.6
    endloop
  endfacet
  facet normal 1 0 0
    outer loop
      vertex 133.3 47.2 0
      vertex 133.3 0 0.6
      vertex 133.3 0 0
    endloop
  endfacet
  facet normal 0 1 -0
    outer loop
      vertex 133.3 47.2 0
      vertex 0 47.2 0.6
      vertex 133.3 47.2 0.6
    endloop
  endfacet
  facet normal 0 1 0
    outer loop
      vertex 0 47.2 0.6
      vertex 133.3 47.2 0
      vertex 0 47.2 0
    endloop
  endfacet
  facet normal -1 0 0
    outer loop
      vertex 0 0 0
      vertex 0 47.2 0.6
      vertex 0 47.2 0
    endloop
  endfacet
  facet normal -1 -0 0
    outer loop
      vertex 0 47.2 0.6
      vertex 0 0 0
      vertex 0 0 0.6
    endloop
  endfacet
endsolid OpenSCAD_Model
